<?xml version="1.0" encoding="UTF-8"?>
<svg version="1.1" viewBox="0 0 1921 1921" width="1280" height="1280" xmlns="http://www.w3.org/2000/svg">
<path transform="translate(321)" d="m0 0h1278l30 3 31 6 25 7 26 10 22 10 18 10 19 12 17 13 10 8 10 9 8 7 14 14 9 11 8 9 13 18 10 15 14 25 9 19 9 23 8 25 6 26 4 25 2 24v1265l-3 29-5 28-7 26-9 26-11 25-11 21-13 21-12 16-10 13-10 11-7 8-14 14-8 7-16 13-18 13-25 15-16 8-17 8-24 9-25 7-31 6-32 3h-1276l-30-3-31-6-25-7-26-10-22-10-18-10-19-12-17-13-10-8-10-9-8-7-14-14-9-11-8-9-13-18-10-15-14-25-9-19-9-23-8-25-6-26-4-25-1-9v-1293l4-29 6-27 8-26 8-21 9-20 10-19 13-21 12-16 10-13 10-11 7-8 14-14 8-7 16-13 18-13 25-15 16-8 17-8 24-9 25-7 31-6z" fill="#F44C28"/>
<path transform="translate(1918,790)" d="m0 0h3v804l-3 29-5 28-7 26-9 26-11 25-11 21-13 21-12 16-10 13-10 11-7 8-14 14-8 7-16 13-18 13-25 15-16 8-17 8-24 9-25 7-31 6-32 3h-1276l-30-3-31-6-25-7-26-10-22-10-18-10-19-12-17-13-10-8-10-9-8-7-14-14-9-11-8-9-13-18-10-15-14-25-9-19-9-23-8-25-6-26-4-25-1-9v-454l24-5 137-26 1704-322z"/>
<path transform="translate(640,126)" d="m0 0h19l12 4 11 7 342 342 7 11 3 9 1 7v10l-3 13-6 11-11 12-330 330-10 7-10 4-4 1h-20l-12-4-10-7-344-344-7-14-2-8v-16l4-13 7-11 233-233 7 6 80 80-1 7-2 10v14l3 13 6 12 8 10 12 9 7 4v210l-8 5-11 8-8 10-6 12-3 13v15l4 15 6 11 11 12 14 8 9 3 5 1h18l12-3 12-6 12-11 7-11 4-9 2-9v-17l-3-12-7-14-9-10-12-8-1-1v-208l7 6 72 72-1 7-2 10v12l3 14 6 12 8 10 10 8 11 5 11 3h18l12-3 13-7 10-9 6-8 6-13 2-8v-20l-4-13-6-11-9-10-10-7-12-5-10-2h-14l-9 2-5-1-83-83 2-12v-16l-3-12-7-14-9-10-10-7-12-5-9-2h-16l-11 2-88-88 6-7 67-67 12-7z" fill="#FEFEFE"/>
<path transform="translate(1247,1025)" d="m0 0h44l32 3 29 5 28 7 32 11 21 9 19 9 23 13 18 12 15 11 14 11 11 10 8 7 21 21 9 11 11 13 13 18 11 17 12 21 12 24 13 33 8 27 6 26 4 25 2 19 1 18v27l-2 29-4 28-7 32-10 32-12 29-8 17-10 18-13 21-13 18-11 14-13 15-8 8-7 8-12 11-10 9-14 11-16 12-17 11-19 11-17 9-25 11-19 7-4 1h-10l-7-3-5-5-3-6-1-129-3-18-5-15-7-13-9-10-1-2 11-2 28-5 23-6 19-7 19-9 15-10 11-9 14-14 10-14 9-16 7-17 6-20 4-20 2-17 1-15v-24l-2-18-5-21-6-16-10-19-12-16-5-7 5-17 2-13v-30l-4-22-7-21-3-1h-12l-17 3-18 6-24 11-27 16-6 4-9-1-28-6-21-3-29-2h-26l-28 2-27 4-27 6-7-1-19-12-27-14-24-9-13-3-8-1h-11l-3 1-7 21-4 22v31l4 20 2 7-1 5-8 10-10 15-9 19-6 18-4 21-1 11v23l2 26 4 23 6 22 9 21 8 14 12 16 15 15 15 11 16 9 18 8 22 7 28 6 20 3 3 2-8 9-8 14-5 14-3 15-16 6-20 4h-18l-15-3-14-6-11-8-7-6-11-14-10-15-11-12-11-9-14-7-8-2h-20l-7 2v7l7 8 10 7 9 7 10 11 10 15 9 16 9 20 8 11 8 8 13 8 15 6 14 3 7 1h37l25-3v79l-4 8-8 5-4 1h-8l-13-4-25-10-27-13-27-16-16-11-17-13-13-11-10-9-25-25-9-11-10-12-13-18-12-19-9-16-8-15-11-25-10-28-7-25-6-29-3-23-2-29v-27l2-29 4-28 6-27 7-25 10-27 9-20 11-22 12-20 13-19 13-17 12-14 11-12 19-19 8-7 16-13 18-13 15-10 21-12 17-9 23-10 25-9 27-8 29-6 31-4z" fill="#FEFEFE"/>
<path transform="translate(1919,765)" d="m0 0h2v25l-24 5-1894 358h-3v-25l24-5 1831-346z" fill="#FEFEFE"/>
</svg>
